PathFileType	4	(X/Y/Z)	Apose_0-50.trc
DataRate	CameraRate	NumFrames	NumMarkers	Units	OrigDataRate	OrigDataStartFrame	OrigNumFrames
30	30	9	22	m	30	0	50
Frame#	Time	Hip			RHip			RKnee			RAnkle			RBigToe			RSmallToe			RHeel			LHip			LKnee			LAnkle			LBigToe			LSmallToe			LHeel			Neck			Head			Nose			RShoulder			RElbow			RWrist			LShoulder			LElbow			LWrist		
		X1	Y1	Z1	X2	Y2	Z2	X3	Y3	Z3	X4	Y4	Z4	X5	Y5	Z5	X6	Y6	Z6	X7	Y7	Z7	X8	Y8	Z8	X9	Y9	Z9	X10	Y10	Z10	X11	Y11	Z11	X12	Y12	Z12	X13	Y13	Z13	X14	Y14	Z14	X15	Y15	Z15	X16	Y16	Z16	X17	Y17	Z17	X18	Y18	Z18	X19	Y19	Z19	X20	Y20	Z20	X21	Y21	Z21	X22	Y22	Z22
1	0.0333333333333333	0.06126983357371783	0.9182597836029477	0.37138400917664005	0.052768104242818206	0.8856679746882031	0.483439534411261	0.021159620362617235	0.5099770780347148	0.5020695377882625	-0.008166569701871046	0.1119750770897334	0.5171894583607527	0.1956373748687133	0.039706575008696815	0.5603417298163114	0.14090586578447953	0.03863604627449514	0.6141500674703141	-0.048291164529840565	0.05242090608498321	0.5068510078090388	0.05235478293435814	0.8880919928740437	0.26090963263596634	0.03270372135434026	0.5130672245058494	0.23081368619398376	0.007142139163863636	0.11614754426658912	0.20858642099798125	0.21556865201959705	0.04530941349914909	0.1815402145960245	0.1615865660695866	0.040252456761920276	0.1303189692953956	-0.028911003562717433	0.04580752620053732	0.2268876932661578	0.05483338760663335	1.6035959009776057	0.36801546711814614	0.2187080209747825	1.8233781029906853	0.28077376029270107	0.20936135542862283	1.6562503088768168	0.32391117214454734	0.03545267966771673	1.4928713032752756	0.555906561829696	0.10816561749926201	1.238532848041707	0.7306161231965596	0.18431168864327147	1.0400604763806844	0.891626718937989	0.005286456045102955	1.4799247520196197	0.16598384302633998	0.020363940879353667	1.2319464260637734	0.012855347014251155	0.08364124947526388	1.0201080665063218	-0.1373727232428553
2	0.0666666666666666	0.0560186049622741	0.9191975089281481	0.36931511544778767	0.04747829858338534	0.8859820443357819	0.48107613873126637	0.01782903116174512	0.5094940838534527	0.5025377426521233	-0.008222072339292815	0.10898820011782655	0.5177379514096582	0.19737759216960177	0.04111254661799166	0.5608721938748499	0.14189917643867261	0.038665865225779805	0.6139580286920496	-0.048034618811351	0.04924835002935895	0.507191712030597	0.04732541301146458	0.8882748948376646	0.25867952108995007	0.029383514753663246	0.5134417015744217	0.22959058069721866	0.00715791504004517	0.11603515243181999	0.20886821248795212	0.2159686378962474	0.04585380562590293	0.180960748816456	0.1630416923013342	0.04167669369133127	0.12885306245157072	-0.02916001428456931	0.04746565760053063	0.22705064403663466	0.060806213475034926	1.600644272391065	0.36824982354399227	0.22481896317412994	1.8011193921261635	0.30446286286711594	0.22823494437179656	1.6359093132200013	0.327564876452141	0.0343854145951369	1.4931827787142562	0.5541500311532934	0.09999285439169728	1.2377353980792534	0.7306160744520388	0.17098195105081598	1.043138892159772	0.8959390384774429	0.007470835219520001	1.4804619783302952	0.16199173084676083	0.017047079369877156	1.2312428274083098	0.010227733465823051	0.07312958318043923	1.0210697351155715	-0.13971705689704678
3	0.1	0.05110742382936964	0.9200975900930577	0.3674634858315141	0.042473971390260566	0.8864952662927377	0.479143762691755	0.014676447582753148	0.509242481679867	0.5031376006387587	-0.008310834181002005	0.10648329543444607	0.51814972961357	0.19886476365535713	0.042225405823275435	0.5612814531579587	0.14283733793186065	0.03890798790995889	0.61383423022899	-0.04788097649410931	0.0467082742246573	0.5075008123360804	0.04259918899729352	0.8885302899482611	0.2567226817954168	0.026125728316311502	0.5138336513081152	0.228592043726565	0.007015745947424273	0.1158360757304377	0.20905676020670771	0.21630062768982705	0.046110390126011626	0.18047290885010744	0.16431567497277752	0.04266602743274988	0.12773115555629883	-0.029501978592241657	0.04871017758558753	0.22713077442301502	0.06642980473912755	1.5980588262970385	0.368235446483096	0.23250364751003377	1.7815987406813552	0.3234344176007476	0.2423936177631914	1.6166528641585667	0.3297840012036613	0.033508222742948714	1.493649820143354	0.5524455534577367	0.09209463896943043	1.2376963671940402	0.7303084329570682	0.1591597907221261	1.046062306399428	0.8996130049139067	0.009646123714485783	1.48097997832348	0.1585482109989871	0.013925714634147547	1.230750762985739	0.007805807165054196	0.06365096495287507	1.0217848023123486	-0.1419438063865623
4	0.1333333333333333	0.04691581758354178	0.9208523133002645	0.36600663352354657	0.03813468636483205	0.8871974821762296	0.4779011724994217	0.011915720307297546	0.5092636728565186	0.5039095144386164	-0.008496085252049835	0.10469754591428312	0.5184173865699752	0.19987899472424167	0.04291291617031752	0.561469046201607	0.14369437185162484	0.03939633147621262	0.6137726959800778	-0.04769688005395919	0.04489359816913246	0.5075448369187092	0.03851998453686347	0.8888034920785152	0.255185379336825	0.023026523611922103	0.5141646522274438	0.2279772635545561	0.0067034337342158756	0.11529367734099856	0.20903215973925116	0.21648035091089168	0.04598449539924507	0.18014457929390487	0.1651857872226958	0.04304572565979522	0.1270872400855875	-0.0299393534624643	0.04928435454537387	0.22711920452844941	0.07117433915515667	1.5960915567142466	0.3678287183224971	0.24107888167796973	1.766859738306678	0.3355856836520428	0.24942891852602003	1.6000373731007786	0.329971773484636	0.03285035215003126	1.4942824812821802	0.5508303460545554	0.0849269938006621	1.238713222084665	0.7294284896748059	0.1499202420531947	1.0486241929723925	0.9022382455996205	0.011723801143732355	1.4813558818058183	0.15593136984834827	0.01134923091139188	1.2303810098343766	0.005754029435001168	0.05618573229107382	1.0221034044192219	-0.14383832360401988
5	0.1666666666666666	0.043682056396305895	0.9213230693348419	0.3649876743592131	0.0347099090134989	0.8879222365714616	0.47730727671929485	0.00967914747425177	0.5094757985410411	0.5047549089535136	-0.008786156876168025	0.10356598394069272	0.5186299391864096	0.20031317000015586	0.043150551185578076	0.5613212458565454	0.14444814237155532	0.03996538914448385	0.613740581056689	-0.04726125636693356	0.04347565861351418	0.5070269432997759	0.03530332783825111	0.8890046105062238	0.25402486238250216	0.020214256694860582	0.5143359615270918	0.22774204771307607	0.0063352231321497695	0.1142795046511196	0.2087933507841524	0.21647609574227072	0.04558559458415746	0.17997979944822864	0.1655775556007949	0.04292590494568844	0.1268509568296718	-0.030398737904404602	0.04922616536267713	0.2270392525528842	0.0746769382958261	1.5947673245241554	0.36706370589660947	0.24873474840949986	1.757476307448276	0.3415547808430493	0.2505511625760717	1.5875630874047688	0.32868000350469345	0.03231869774600558	1.4949864491495042	0.5493297314910135	0.07896620707153018	1.2404406599532014	0.7280249234040433	0.14346201586024612	1.0506402846677867	0.9037340730937443	0.013638718941687309	1.4814831300784372	0.1541189857131049	0.009637786415736165	1.2298781767367892	0.00411823562518447	0.05125468199005972	1.0219358128338718	-0.14526678042157085
6	0.2	0.04137805320271673	0.9214484244708201	0.3642829544128884	0.03217173637199309	0.8885470914995051	0.47710732759798985	0.007972419929422452	0.509810104046848	0.5054863343053762	-0.00909076256924518	0.10289820087076237	0.5188428110103785	0.20015573777026993	0.042899551699295525	0.5607013805920786	0.14504925689371345	0.04041686359282163	0.6137399843079988	-0.046515169035896684	0.0421918954708655	0.505879095000541	0.03293325762048324	0.8891361442258624	0.25308414031675414	0.01785021530757427	0.5143464491014071	0.22770646176326562	0.006025514981948264	0.11302246383673051	0.20849955536771694	0.2163195745456785	0.04513563898138792	0.17993705492637702	0.16564785002388313	0.042544262912830574	0.12686566965928325	-0.030774060445854123	0.04879726920566947	0.2268729673598799	0.07697809200357918	1.5939269835396805	0.3660814635384948	0.2543989113649202	1.7525962207407928	0.34324364005788105	0.24881649392511193	1.579685933539363	0.32694318096578123	0.03184593736299031	1.495679758297684	0.5479491521313646	0.07448569406324648	1.2421832098244343	0.7265008502285009	0.13918248147131546	1.0520045961695836	0.9042867117620556	0.015425111408083343	1.4813733351898863	0.15291474428810126	0.00889502216560278	1.2291024706081846	0.0028652030305424824	0.04877386268972693	1.0212058848689076	-0.14626233994745308
7	0.2333333333333333	0.03979520292641991	0.9213078021998323	0.3637146351460238	0.030356583727426868	0.8890966075387703	0.47706895569533553	0.006740456715659296	0.5102239050300447	0.5059360709568506	-0.009301993269541512	0.10257141028287278	0.5190181234060287	0.19939781447901633	0.04210681501799969	0.5594394362423406	0.14542782093611628	0.04065643739552566	0.6137872753865732	-0.045552211985236644	0.041054816693379285	0.5043410627019637	0.031257322048805734	0.8892773534103593	0.25224726512799894	0.01605630620656886	0.514289113097594	0.22767981169582985	0.0058438150955938085	0.11186750518008054	0.20830060117942678	0.21608123475635022	0.04486543099163147	0.18000028769806298	0.16562964017407136	0.04213725820308399	0.12697824406261157	-0.03097404553043887	0.048251102757427625	0.22660604739783952	0.07834412436474572	1.5933956096942574	0.36502585498012846	0.2579915916732456	1.7507656279924642	0.34260143885209066	0.2465870893400697	1.5756693817042406	0.32551484932399183	0.03143035432279371	1.4963246671366268	0.5466798817617166	0.07148571812725237	1.2433959760553746	0.7252734116381756	0.13622830233440575	1.0527140953387517	0.9042159216820586	0.017102907828933527	1.4811140443269275	0.1521088808883403	0.008993522656702599	1.2281350132924733	0.001985588699737099	0.04828854167703871	1.0199448117786125	-0.14689544131845617
8	0.2666666666666666	0.038664816012336775	0.9210767002753192	0.36317437608983827	0.029107292744698855	0.8896764310441863	0.47707580909536995	0.005886612556060873	0.5106586414973977	0.5060264245442814	-0.00937373708112552	0.1025675370295393	0.5190339907229111	0.1980339448134809	0.04082883181257076	0.5574039566459078	0.14554234373128166	0.04069125226634904	0.6138925884841681	-0.04450213127883201	0.040218218388377656	0.5028215860035898	0.030095607813216865	0.8895013126745761	0.2515063517006876	0.01482828753947335	0.5142627869998203	0.22758640806029568	0.005793283366290896	0.11100808952852328	0.20821568048039707	0.21589707874539407	0.044920041198261054	0.18019913584102928	0.16566812690515226	0.04189569214579653	0.12710188833200675	-0.030981335724270243	0.04770912106976849	0.22630368488799177	0.07906636360864913	1.5930770795062432	0.36403079662418353	0.25995978832097755	1.7506317562959335	0.3410926971719563	0.2449498433304691	1.5742464896324235	0.3246819728201743	0.031068675609084915	1.496904362778994	0.5455171954059032	0.06974155416881524	1.2439092018467963	0.7245164422302313	0.13388882914712802	1.0529207250166133	0.9037888233846412	0.018545838018424115	1.480785289009987	0.15157987049875665	0.009501138332631541	1.2269834463937346	0.0013883115798712807	0.04919744048374114	1.0184300909223665	-0.14716199248617629
9	0.3	0.03774872342466049	0.9209128300784453	0.36263618361434785	0.02828901610229119	0.8903088890151438	0.47703716233972293	0.0052736806291926175	0.5110209291273391	0.5057817391254928	-0.009338162230333295	0.10291310119569229	0.5187486956242332	0.19622500562942843	0.03935624872073619	0.5548031261218189	0.14542966814483166	0.04058507551317688	0.6140750075584678	-0.04357491592279617	0.0398519339112873	0.501783949963035	0.029272574921561528	0.8898039707328018	0.25089361112942665	0.01407853788021344	0.5142930852712732	0.22738951677582578	0.005800178977016432	0.1104850519205863	0.20818071900675594	0.21592898282562137	0.04533587475769979	0.1805453373954622	0.16577809888391484	0.04195168630650962	0.12722285202004371	-0.03083910177844428	0.047223398095376276	0.2260792490829883	0.07938702934266638	1.5929364415100091	0.3631940877679297	0.2608778725874727	1.7512327609269696	0.3395749587394443	0.2441450063526523	1.5742186959685365	0.3243656380181783	0.030732920969427945	1.4974008299151518	0.5444602311919139	0.06889629992626896	1.2438568327393322	0.7241611433464513	0.13172729032054215	1.0528595629720487	0.9031039120258331	0.01956631432961775	1.4804295300311754	0.15122918177259487	0.009782286155157173	1.225376171558788	0.0008258999148906402	0.050954851795654836	1.0170538159210443	-0.14701947117458253
